<svg width="40" height="40" viewBox="0 0 40 40" fill="none" xmlns="http://www.w3.org/2000/svg">
<path d="M11.025 34.9667C10.2584 34.9667 9.61837 34.71 9.10504 34.1967C8.5906 33.6833 8.33337 33.0428 8.33337 32.275V7.725C8.33337 6.95833 8.5906 6.31777 9.10504 5.80333C9.61837 5.28888 10.2584 5.03166 11.025 5.03166H28.975C29.7417 5.03166 30.3817 5.28888 30.895 5.80333C31.4095 6.31666 31.6667 6.95722 31.6667 7.725V32.275C31.6667 33.0417 31.41 33.6822 30.8967 34.1967C30.3823 34.7111 29.7417 34.9683 28.975 34.9683L11.025 34.9667ZM10 19.1667H17.5V17.8833H22.5V19.1667H30V7.725C30 7.46833 29.8934 7.23333 29.68 7.02C29.4656 6.80555 29.2306 6.69833 28.975 6.69833H11.025C10.7695 6.69833 10.5345 6.80555 10.32 7.02C10.1067 7.23333 10 7.46833 10 7.725V19.1667ZM10 20.8333V32.275C10 32.5317 10.1067 32.7667 10.32 32.98C10.5345 33.1944 10.7695 33.3017 11.025 33.3017H28.975C29.2306 33.3017 29.4656 33.1944 29.68 32.98C29.8934 32.7667 30 32.5317 30 32.275V20.8333H10Z" fill="#DBBF9D"/>
</svg>
