<svg width="35" height="35" viewBox="0 0 35 35" fill="none" xmlns="http://www.w3.org/2000/svg">
<path fill-rule="evenodd" clip-rule="evenodd" d="M0 12.7711V22.2289C0 26.6894 1.66893e-07 28.9178 1.48647 30.3042C2.835 31.5622 4.93294 31.6769 8.89 31.6886C8.68206 30.3761 8.63882 28.8108 8.62647 26.9675C8.62647 26.7799 8.66563 26.5942 8.7417 26.4209C8.81777 26.2476 8.92927 26.0902 9.06981 25.9576C9.21035 25.8251 9.37719 25.72 9.56077 25.6484C9.74435 25.5767 9.94108 25.54 10.1397 25.5403C10.3384 25.538 10.5357 25.5726 10.7202 25.6423C10.9048 25.712 11.0729 25.8154 11.2152 25.9465C11.3574 26.0776 11.4709 26.2338 11.5492 26.4063C11.6275 26.5789 11.6691 26.7643 11.6715 26.9519C11.6838 29.0208 11.7394 30.4869 11.9597 31.5992C12.1718 32.6725 12.5094 33.2908 13.0035 33.7536C13.5656 34.2786 14.3541 34.6189 15.8447 34.8036C17.3765 34.9981 19.4065 35 22.3197 35H24.3476C27.2609 35 29.2909 34.9961 30.8247 34.8056C32.3132 34.6189 33.1018 34.2767 33.6618 33.7536C34.2238 33.2286 34.5903 32.4936 34.79 31.1053C34.9959 29.6781 35 27.7822 35 25.0678V9.93222C35 7.21583 34.9959 5.32389 34.79 3.89472C34.5903 2.50639 34.2238 1.76944 33.6638 1.24639C33.1018 0.721389 32.3132 0.381111 30.8226 0.196389C29.2929 1.46031e-07 27.2629 0 24.3497 0H22.3218C19.4085 0 17.3785 0.00388871 15.8447 0.194444C14.3562 0.381111 13.5676 0.723333 13.0056 1.24639C12.5115 1.70722 12.1738 2.3275 11.9618 3.40083C11.7415 4.51306 11.6859 5.97917 11.6735 8.04806C11.6711 8.23574 11.6296 8.42114 11.5513 8.59366C11.473 8.76618 11.3595 8.92245 11.2172 9.05353C11.075 9.18462 10.9068 9.28796 10.7223 9.35766C10.5378 9.42735 10.3405 9.46203 10.1418 9.45972C9.94314 9.45998 9.74641 9.42325 9.56283 9.35164C9.37925 9.28003 9.21241 9.17494 9.07187 9.04239C8.93133 8.90983 8.81983 8.75241 8.74376 8.57912C8.66768 8.40584 8.62853 8.22009 8.62853 8.0325C8.64088 6.18917 8.68412 4.62389 8.89206 3.31139C4.935 3.32306 2.83912 3.43778 1.48853 4.69583C0.00205896 6.08222 0 8.3125 0 12.7711ZM5.01324 18.5033C4.87205 18.3725 4.7599 18.2163 4.68335 18.0441C4.60679 17.8718 4.56736 17.6868 4.56736 17.5C4.56736 17.3132 4.60679 17.1282 4.68335 16.9559C4.7599 16.7837 4.87205 16.6275 5.01324 16.4967L9.06912 12.7128C9.35637 12.4461 9.74306 12.2966 10.1459 12.2966C10.5487 12.2966 10.9354 12.4461 11.2226 12.7128C11.3638 12.8436 11.476 12.9998 11.5525 13.1721C11.6291 13.3443 11.6685 13.5293 11.6685 13.7161C11.6685 13.9029 11.6291 14.0879 11.5525 14.2602C11.476 14.4324 11.3638 14.5886 11.2226 14.7194L9.76088 16.0806H24.3497C25.1897 16.0806 25.8732 16.7164 25.8732 17.5C25.8732 18.2836 25.1897 18.9194 24.3497 18.9194H9.75882L11.2206 20.2806C11.3618 20.4114 11.4739 20.5676 11.5505 20.7398C11.627 20.9121 11.6665 21.0971 11.6665 21.2839C11.6665 21.4707 11.627 21.6557 11.5505 21.8279C11.4739 22.0002 11.3618 22.1564 11.2206 22.2872C10.9333 22.5539 10.5466 22.7034 10.1438 22.7034C9.741 22.7034 9.35431 22.5539 9.06706 22.2872L5.01324 18.5033Z" fill="#DBBF9D"/>
</svg>
