<svg width="40" height="40" viewBox="0 0 40 40" fill="none" xmlns="http://www.w3.org/2000/svg">
<path d="M34.9966 5V8.33333C34.9966 11.4275 33.7675 14.395 31.5795 16.5829C29.3916 18.7708 26.4241 20 23.33 20H21.6633V21.6667H29.9966V33.3333C29.9966 34.2174 29.6454 35.0652 29.0203 35.6904C28.3952 36.3155 27.5473 36.6667 26.6633 36.6667H13.33C12.4459 36.6667 11.5981 36.3155 10.9729 35.6904C10.3478 35.0652 9.99662 34.2174 9.99662 33.3333V21.6667H18.33V16.6667C18.33 13.5725 19.5591 10.605 21.747 8.41709C23.935 6.22916 26.9024 5 29.9966 5H34.9966ZM9.16329 3.33333C11.1632 3.33171 13.1343 3.81064 14.9106 4.72979C16.6868 5.64894 18.2162 6.98141 19.37 8.615C17.6099 10.9298 16.6589 13.7587 16.6633 16.6667V18.3333H15.83C12.5147 18.3333 9.33533 17.0164 6.99112 14.6722C4.64692 12.328 3.32996 9.14854 3.32996 5.83333V3.33333H9.16329Z" fill="#DBBF9D"/>
</svg>
