<svg width="40" height="40" viewBox="0 0 40 40" fill="none" xmlns="http://www.w3.org/2000/svg">
<path d="M3.33329 20H6.66662C6.66265 18.2478 7.00468 16.5121 7.67308 14.8925C8.34148 13.2728 9.3231 11.8011 10.5616 10.5617C11.7746 9.34464 13.2138 8.37649 14.7983 7.71166C18.0641 6.35488 21.7313 6.33035 25.015 7.64333C25.0471 8.72244 25.4988 9.74649 26.274 10.4978C27.0493 11.2491 28.087 11.6684 29.1666 11.6667C31.4766 11.6667 33.3333 9.81 33.3333 7.5C33.3333 5.18999 31.4766 3.33333 29.1666 3.33333C28.0183 3.33333 26.98 3.79333 26.2283 4.54166C22.1766 2.91999 17.5233 2.94499 13.5033 4.63999C11.5218 5.47282 9.72165 6.68371 8.20329 8.20499C6.68132 9.7225 5.46983 11.5222 4.63662 13.5033C3.77196 15.5599 3.32876 17.7691 3.33329 20ZM32.2883 25.2033C31.62 26.79 30.66 28.2167 29.4383 29.4383C28.2166 30.66 26.79 31.62 25.2016 32.2883C21.9358 33.6451 18.2686 33.6696 14.985 32.3567C14.9528 31.2775 14.5011 30.2535 13.7259 29.5022C12.9506 28.7509 11.9129 28.3316 10.8333 28.3333C8.52329 28.3333 6.66662 30.19 6.66662 32.5C6.66662 34.81 8.52329 36.6667 10.8333 36.6667C11.9816 36.6667 13.02 36.2067 13.7716 35.4583C15.7508 36.2576 17.8655 36.6679 20 36.6667C23.2775 36.673 26.4839 35.7112 29.2168 33.9019C31.9498 32.0926 34.0874 29.5164 35.3616 26.4967C36.2274 24.4404 36.6712 22.2311 36.6666 20H33.3333C33.3375 21.787 32.9821 23.5565 32.2883 25.2033Z" fill="#DBBF9D"/>
<path d="M20 12.4367C15.83 12.4367 12.4366 15.83 12.4366 20C12.4366 24.17 15.83 27.5633 20 27.5633C24.17 27.5633 27.5633 24.17 27.5633 20C27.5633 15.83 24.17 12.4367 20 12.4367ZM20 24.23C17.6683 24.23 15.77 22.3317 15.77 20C15.77 17.6683 17.6683 15.77 20 15.77C22.3316 15.77 24.23 17.6683 24.23 20C24.23 22.3317 22.3316 24.23 20 24.23Z" fill="#DBBF9D"/>
</svg>
